<svg xmlns="http://www.w3.org/2000/svg" width="52" height="52" viewBox="0 0 52 52">
    <g fill="none" fill-rule="evenodd">
        <path d="M-10.345-8h72v72h-72z" opacity=".415"/>
        <g fill="#000" stroke="#000" stroke-width=".2">
            <path fill-rule="nonzero" d="M50.505 28.967a2.714 2.714 0 0 0-1.927-.795h-.346c-1.58-9.083-10.822-15.843-21.866-15.843a25.8 25.8 0 0 0-7.5 1.11 6.104 6.104 0 0 0-3.513-1.11h-.858v1.91c-.032-.034-.055-.072-.087-.104a6.131 6.131 0 0 0-4.363-1.808h-.86v6.88c-1.583 1.638-2.83 3.496-3.673 5.514H.655v12.345h4.86c1.402 3.344 3.885 6.251 7.226 8.448v2.053a3.723 3.723 0 0 0 3.726 3.727 3.7 3.7 0 0 0 2.636-1.09c.434-.433.748-.954.925-1.525a26.347 26.347 0 0 0 12.665.004 3.723 3.723 0 0 0 3.563 2.613c.992 0 1.93-.387 2.632-1.089a3.722 3.722 0 0 0 1.094-2.639v-2.044c4.467-2.934 7.431-7.22 8.254-11.91h.35c.725 0 1.407-.283 1.922-.8a2.715 2.715 0 0 0 .795-1.923c0-.724-.283-1.406-.798-1.924zM13.19 15.356c.129.128.211.297.326.442-.932.557-1.8 1.179-2.61 1.846v-3.51a4.4 4.4 0 0 1 2.284 1.222zm36.1 16.245a.994.994 0 0 1-.707.293h-1.85l-.096.755c-.574 4.606-3.483 8.86-7.974 11.674l-.405.25v2.99c0 .534-.208 1.04-.594 1.422-.377.38-.878.587-1.415.587a1.998 1.998 0 0 1-2.006-1.982l-.013-1.134-1.09.317c-2.18.637-4.46.957-6.778.957-2.328 0-4.612-.322-6.79-.962l-1.09-.32-.014 1.139a1.988 1.988 0 0 1-.59 1.398c-.377.38-.88.587-1.417.587a1.99 1.99 0 0 1-1.417-.584 2.011 2.011 0 0 1-.59-1.425v-2.996l-.403-.25c-3.412-2.144-5.885-5.052-7.156-8.415l-.211-.553H2.369v-8.903h4.318l.211-.557c1.317-3.503 3.995-6.535 7.592-8.666v2.342h1.722v-5.43a4.412 4.412 0 0 1 2.286 1.22A4.418 4.418 0 0 1 19.8 18.5v1.061h1.722V18.5a6.12 6.12 0 0 0-1.237-3.672 24.197 24.197 0 0 1 6.082-.779c10.481 0 19.196 6.488 20.27 15.09l.093.753h1.85c.267 0 .522.105.71.29.187.191.293.443.293.708 0 .265-.106.521-.294.71z"/>
            <path d="M14.59 22.813a2.775 2.775 0 0 0-2.772 2.772h1.722a1.052 1.052 0 0 1 2.104 0h1.722a2.779 2.779 0 0 0-2.776-2.772z"/>
            <path fill-rule="nonzero" d="M28.407 9.222a4.116 4.116 0 0 0 4.11-4.111A4.116 4.116 0 0 0 28.407 1a4.116 4.116 0 0 0-4.11 4.113 4.117 4.117 0 0 0 4.11 4.109zm0-6.5a2.394 2.394 0 0 1 2.39 2.39 2.392 2.392 0 0 1-2.39 2.391 2.394 2.394 0 0 1-2.39-2.39 2.394 2.394 0 0 1 2.39-2.391z"/>
        </g>
    </g>
</svg>
