<svg xmlns="http://www.w3.org/2000/svg" width="50" height="50" viewBox="0 0 50 50">
    <g fill="none" fill-rule="evenodd">
        <path d="M-11-10h72v72h-72z" opacity=".415"/>
        <path fill="#000" fill-rule="nonzero" stroke="#FFF" stroke-width=".5" d="M44.982 14.21c-.542 0-1.076.097-1.585.283l-3.409 1.24-1.227-.629a6.334 6.334 0 0 0-.185-.894c2.468-.72 5.05-2.89 5.557-5.518.728-3.794-1.764-7.474-5.557-8.202a6.954 6.954 0 0 0-5.023.938.889.889 0 0 0-.135-.013H27.18a1.117 1.117 0 0 0 0 2.234h4.144c-.19.305-.36.626-.502.962a1.114 1.114 0 0 0-.434-.088h-8.045a1.118 1.118 0 0 0 0 2.234h7.94c-.085.947.014 1.89.307 2.782l-4.66-.833a4.304 4.304 0 0 0-1.001-.06c-.064-.003-.131-.003-.196-.003a4.54 4.54 0 0 0-2.736.901l-5.542 4.095a4.568 4.568 0 0 0-1.859 3.707H8.65a1.118 1.118 0 0 0 0 2.236h6.532c.096.171.2.34.318.5a4.62 4.62 0 0 0 3.697 1.858c.994 0 1.943-.313 2.743-.906l2.193-1.62-1.603 3.25c-.16.333-.29.672-.39 1.023a4.895 4.895 0 0 0-.653 3.514c.138.734.436 1.417.868 2.001L20.04 33.5l-6.885.585a4.908 4.908 0 0 0-3.357 1.763 4.897 4.897 0 0 0-1.117 3.513h-4.9a1.117 1.117 0 0 0 0 2.234h5.617a4.905 4.905 0 0 0 4.192 2.331c.153 0 .311-.007.466-.02l9.034-.767c.228-.021.425-.06.595-.097a4.896 4.896 0 0 0 3.796-2.56l2.927-5.433 3.51 2.398 1.374 3.807c-.012 0-.02-.004-.032-.004H29.63a1.118 1.118 0 1 0 0 2.234h5.632c.284 0 .538-.107.734-.28l.378 1.049h-4.069a1.118 1.118 0 0 0 0 2.235h4.88a4.953 4.953 0 0 0 4.595 3.15c.599 0 1.186-.107 1.748-.32a4.903 4.903 0 0 0 2.749-2.59 4.905 4.905 0 0 0 .117-3.751l-3.662-10.161-.016-.038a4.884 4.884 0 0 0-1.186-1.784 4.86 4.86 0 0 0-1.102-1.04l-5.384-3.681.699-1.419a4.588 4.588 0 0 0 4.34.643l6.478-2.357a4.608 4.608 0 0 0 2.743-5.907 4.616 4.616 0 0 0-4.32-3.022zM38.122 2.86a4.59 4.59 0 0 1 3.64 5.377 4.593 4.593 0 0 1-5.374 3.643 4.594 4.594 0 1 1 1.733-9.02zm-12.766 36.48a2.51 2.51 0 0 1-2.069 1.315c-.13.035-.261.066-.402.077l-9.056.77a2.517 2.517 0 0 1-2.742-2.271 2.516 2.516 0 0 1 2.274-2.742l8.185-.695 2.494-4.63 4.316 2.616-3 5.56zM45.738 20.87l-6.486 2.358a2.174 2.174 0 0 1-2.416-.643 2.109 2.109 0 0 1-.363-.352L35.16 20.58l-3.206 6.499 7.11 4.864c.272.185.488.415.662.668.314.266.576.607.732 1.02l3.671 10.177a2.519 2.519 0 1 1-4.708 1.787l-3.5-9.7-6.367-4.354-4.183-2.86-.462-.317a2.518 2.518 0 0 1-.66-3.5c.036-.053.081-.094.12-.143.061-.336.167-.67.321-.993l3.781-7.665-3.112-.558-4.86 3.589a2.18 2.18 0 0 1-1.305.433 2.19 2.19 0 0 1-1.31-3.948l5.55-4.1a2.161 2.161 0 0 1 1.495-.413c.081-.008.16-.012.24-.012.109 0 .218.008.329.027l5.987 1.07a4.013 4.013 0 0 1 1.569-.319 3.996 3.996 0 0 1 3.983 4.068l2.138 2.694 5.048-1.835a2.193 2.193 0 0 1 2.815 1.303 2.19 2.19 0 0 1-1.3 2.81z"/>
        <path stroke="#000" stroke-linecap="round" stroke-width="1.7" d="M1.5 37.5h8M12 21h7"/>
        <path stroke="#000" stroke-width="2" d="M30.474 10.55c5.11 2.34 8.275 4.68 9.497 7.023"/>
    </g>
</svg>
