<svg xmlns="http://www.w3.org/2000/svg" width="96" height="35" viewBox="0 0 96 35">
    <g fill="none" fill-rule="evenodd">
        <path fill="#343742" d="M32.968 9.79c0 .755.251 1.49.754 1.936a2.392 2.392 0 0 0 1.837.814 2.47 2.47 0 0 0 1.818-.814c.445-.445.754-1.181.754-1.936a2.99 2.99 0 0 0-.754-1.956 2.524 2.524 0 0 0-1.818-.794c-.715 0-1.354.27-1.837.794-.503.503-.754 1.2-.754 1.956zm-2.128 7.417V9.81 5.955c0-.562.465-1.026 1.025-1.026.542 0 .987.368 1.064.794a4.901 4.901 0 0 1 2.63-.794c2.572 0 4.68 2.207 4.68 4.86 0 2.654-2.108 4.804-4.68 4.804-.967 0-1.895-.291-2.591-.795v3.41c0 .541-.484 1.045-1.103 1.045-.56 0-1.025-.504-1.025-1.046zM43.296 13.547c0 .6-.484 1.065-1.083 1.065-.484 0-.89-.349-1.025-.794a1.155 1.155 0 0 1-.039-.271V2.12c0-.6.484-1.065 1.064-1.065.6 0 1.083.465 1.083 1.065v3.37c.619-.329 1.315-.561 2.069-.561 2.34 0 4.216 1.917 4.216 4.24v4.378c0 .6-.464 1.065-1.064 1.065a1.05 1.05 0 0 1-1.063-1.065V9.17c0-1.143-.929-2.072-2.089-2.092a2.115 2.115 0 0 0-2.07 2.092v4.377M53.082 8.821h5.473c-.193-.774-1.18-1.917-2.862-2.053-1.644.078-2.456 1.26-2.61 2.053zm-2.108.95c.02-2.635 2.07-4.842 4.719-4.842 2.514 0 4.506 1.878 4.66 4.493v.096c0 .04 0 .136-.019.175-.058.464-.464.774-1.005.774h-6.15c.097.446.31.95.657 1.279.407.464 1.18.813 1.857.871.696.058 1.528-.116 2.011-.484.406-.426 1.2-.368 1.45-.058.252.27.446.852 0 1.259-.947.871-2.088 1.278-3.461 1.278-2.65-.02-4.7-2.208-4.719-4.842zM69.754 8.957v4.628c0 .562-.446 1.027-1.006 1.027a1.045 1.045 0 0 1-1.025-1.027V8.957c0-1.085-.91-1.956-2.011-1.956-1.083 0-1.934.871-1.934 1.956v4.628c0 .059 0 .117-.039.194a1.059 1.059 0 0 1-1.025.833 1.02 1.02 0 0 1-1.025-1.027v-7.63a1.02 1.02 0 0 1 1.025-1.026c.406 0 .774.232.948.6.58-.368 1.295-.6 2.05-.6 2.243 0 4.042 1.84 4.042 4.028M73.216 9.79c0 .832.251 1.51.696 2.052.484.465 1.122.717 1.857.717a2.53 2.53 0 0 0 1.779-.717c.483-.542.754-1.22.754-2.052 0-.794-.27-1.492-.754-2.015-.483-.426-1.102-.735-1.78-.735-.734 0-1.372.31-1.856.735-.445.523-.696 1.22-.696 2.015zm-.773 3.408c-.832-.852-1.335-2.053-1.335-3.408 0-1.317.503-2.46 1.335-3.39.87-.91 1.991-1.471 3.326-1.471 1.276 0 2.437.561 3.23 1.471.87.93 1.353 2.073 1.353 3.39 0 1.355-.483 2.556-1.354 3.408a4.274 4.274 0 0 1-3.23 1.472c-1.334 0-2.455-.562-3.325-1.472zM89.849 8.938v4.648c0 .561-.464 1.026-1.025 1.026-.542 0-1.045-.465-1.045-1.027v-4.59-.057C87.76 7.872 86.871 7 85.788 7c-1.064 0-1.954.89-1.954 1.995v4.59c0 .038-.019.096-.019.135v.058c-.02.039-.02.078-.058.116v.097c-.174.349-.56.62-.967.62-.077 0-.135-.02-.193-.02-.464-.116-.832-.503-.832-1.007v-4.59-3.021c0-.6.464-1.045 1.025-1.045.406 0 .774.213.928.58a4.064 4.064 0 0 1 2.07-.58c1.218 0 2.301.503 3.036 1.336.715-.833 1.818-1.336 3.036-1.336 2.224 0 4.023 1.82 4.023 4.067v4.59c0 .561-.465 1.026-1.026 1.026-.56 0-1.044-.465-1.044-1.027v-4.59c0-1.103-.89-1.994-1.953-1.994a2.009 2.009 0 0 0-2.011 1.937"></path>
        <path fill="#20A0A7" d="M32.968 26.318c0 .755.251 1.491.754 1.936a2.392 2.392 0 0 0 1.837.814 2.47 2.47 0 0 0 1.818-.814c.445-.445.754-1.18.754-1.936 0-.755-.31-1.453-.754-1.956a2.523 2.523 0 0 0-1.818-.794c-.715 0-1.354.27-1.837.794-.503.503-.754 1.2-.754 1.956zm-2.128 7.417v-7.398-3.854c0-.561.465-1.026 1.025-1.026.542 0 .987.368 1.064.794a4.903 4.903 0 0 1 2.63-.794c2.572 0 4.68 2.207 4.68 4.86 0 2.654-2.108 4.804-4.68 4.804-.967 0-1.895-.29-2.591-.794v3.408c0 .542-.484 1.046-1.103 1.046-.56 0-1.025-.504-1.025-1.046zM42.947 25.35h5.473c-.193-.775-1.18-1.918-2.862-2.054-1.644.078-2.456 1.26-2.61 2.053zm-2.107.949c.019-2.635 2.069-4.842 4.718-4.842 2.514 0 4.506 1.878 4.66 4.493v.097c0 .038 0 .135-.018.174-.058.465-.465.774-1.006.774h-6.15c.097.446.31.95.658 1.279.406.465 1.18.813 1.856.871.696.058 1.528-.116 2.011-.484.406-.426 1.2-.368 1.451-.058.251.271.445.852 0 1.259-.948.871-2.089 1.278-3.462 1.278-2.65-.02-4.7-2.208-4.718-4.841zM53.179 26.318c0 .833.251 1.51.696 2.053.484.465 1.122.716 1.857.716a2.53 2.53 0 0 0 1.779-.716c.483-.543.754-1.22.754-2.053 0-.794-.27-1.491-.754-2.014-.483-.426-1.102-.736-1.78-.736-.734 0-1.372.31-1.856.736-.445.523-.696 1.22-.696 2.014zm-.774 3.408c-.831-.852-1.334-2.052-1.334-3.408 0-1.317.503-2.46 1.334-3.39.87-.91 1.992-1.471 3.327-1.471 1.276 0 2.437.562 3.23 1.472.87.93 1.353 2.072 1.353 3.389 0 1.356-.483 2.556-1.354 3.408a4.274 4.274 0 0 1-3.23 1.472c-1.334 0-2.456-.562-3.326-1.472zM63.41 26.318c0 .755.252 1.491.755 1.936a2.392 2.392 0 0 0 1.837.814 2.47 2.47 0 0 0 1.818-.814c.444-.445.754-1.18.754-1.936 0-.755-.31-1.453-.754-1.956a2.523 2.523 0 0 0-1.818-.794c-.716 0-1.354.27-1.837.794-.503.503-.755 1.2-.755 1.956zm-2.127 7.417v-7.398-3.854c0-.561.464-1.026 1.025-1.026.542 0 .987.368 1.064.794a4.903 4.903 0 0 1 2.63-.794c2.572 0 4.68 2.207 4.68 4.86 0 2.654-2.108 4.804-4.68 4.804-.967 0-1.895-.29-2.592-.794v3.408c0 .542-.483 1.046-1.102 1.046-.56 0-1.025-.504-1.025-1.046zM72.849 17.583c.6 0 1.083.485 1.083 1.066v11.426c0 .58-.484 1.065-1.083 1.065-.58 0-1.064-.484-1.064-1.065V18.649c0-.581.483-1.066 1.064-1.066M77.336 25.35h5.472c-.193-.775-1.18-1.918-2.862-2.054-1.643.078-2.456 1.26-2.61 2.053zm-2.108.949c.02-2.635 2.07-4.842 4.718-4.842 2.514 0 4.506 1.878 4.661 4.493v.097c0 .038 0 .135-.02.174-.057.465-.463.774-1.005.774h-6.15c.097.446.31.95.658 1.279.406.465 1.18.813 1.856.871.697.058 1.528-.116 2.012-.484.406-.426 1.199-.368 1.45-.058.251.271.445.852 0 1.259-.948.871-2.088 1.278-3.462 1.278-2.649-.02-4.699-2.208-4.718-4.841zM15.047 29.104a12.002 12.002 0 0 1-11.856 0 2.132 2.132 0 0 0-2.91.797 2.138 2.138 0 0 0 .796 2.914 16.215 16.215 0 0 0 8.042 2.125c2.78 0 5.562-.708 8.042-2.125a2.138 2.138 0 0 0 .796-2.914 2.132 2.132 0 0 0-2.91-.797M16.606 14.953c-2.913 0-5.283-2.373-5.283-5.29s2.37-5.29 5.283-5.29c2.912 0 5.282 2.373 5.282 5.29s-2.37 5.29-5.282 5.29zm0-14.853c-5.266 0-9.55 4.29-9.55 9.563 0 .107.005.213.009.319a2.124 2.124 0 0 0-.008.16v14.134c0 1.18.955 2.136 2.133 2.136a2.135 2.135 0 0 0 2.133-2.136v-6.652a9.483 9.483 0 0 0 5.283 1.602c5.265 0 9.549-4.29 9.549-9.563C26.155 4.39 21.87.1 16.605.1zM85.382 31.009v-.85h.208l.215.679.207-.679h.204v.85h-.13v-.713l-.218.713h-.128l-.228-.724v.724h-.13zm-.513 0v-.724h-.274v-.126h.692v.126h-.276v.724h-.142z"></path>
    </g>
</svg>